<!-- <svg width="18" height="18" viewBox="0 0 18 18" fill="none" xmlns="http://www.w3.org/2000/svg">
<path d="M12.96 8.10001H7.74001C7.24321 8.10001 7.20001 8.50231 7.20001 9.00001C7.20001 9.49771 7.24321 9.90001 7.74001 9.90001H12.96C13.4568 9.90001 13.5 9.49771 13.5 9.00001C13.5 8.50231 13.4568 8.10001 12.96 8.10001V8.10001ZM14.76 12.6H7.74001C7.24321 12.6 7.20001 13.0023 7.20001 13.5C7.20001 13.9977 7.24321 14.4 7.74001 14.4H14.76C15.2568 14.4 15.3 13.9977 15.3 13.5C15.3 13.0023 15.2568 12.6 14.76 12.6ZM7.74001 5.40001H14.76C15.2568 5.40001 15.3 4.99771 15.3 4.50001C15.3 4.00231 15.2568 3.60001 14.76 3.60001H7.74001C7.24321 3.60001 7.20001 4.00231 7.20001 4.50001C7.20001 4.99771 7.24321 5.40001 7.74001 5.40001ZM4.86001 8.10001H3.24001C2.74321 8.10001 2.70001 8.50231 2.70001 9.00001C2.70001 9.49771 2.74321 9.90001 3.24001 9.90001H4.86001C5.35681 9.90001 5.40001 9.49771 5.40001 9.00001C5.40001 8.50231 5.35681 8.10001 4.86001 8.10001ZM4.86001 12.6H3.24001C2.74321 12.6 2.70001 13.0023 2.70001 13.5C2.70001 13.9977 2.74321 14.4 3.24001 14.4H4.86001C5.35681 14.4 5.40001 13.9977 5.40001 13.5C5.40001 13.0023 5.35681 12.6 4.86001 12.6ZM4.86001 3.60001H3.24001C2.74321 3.60001 2.70001 4.00231 2.70001 4.50001C2.70001 4.99771 2.74321 5.40001 3.24001 5.40001H4.86001C5.35681 5.40001 5.40001 4.99771 5.40001 4.50001C5.40001 4.00231 5.35681 3.60001 4.86001 3.60001Z" fill="black"/>
</svg> -->
<svg width="20" height="20" viewBox="0 0 20 20" fill="none" xmlns="http://www.w3.org/2000/svg">
<path d="M7.54548 18.1818C7.99735 18.1818 8.36366 17.8155 8.36366 17.3636C8.36366 16.9118 7.99735 16.5455 7.54548 16.5455C7.09361 16.5455 6.72729 16.9118 6.72729 17.3636C6.72729 17.8155 7.09361 18.1818 7.54548 18.1818Z" stroke="#9B9B9B" stroke-width="2" stroke-linecap="round" stroke-linejoin="round"/>
<path d="M16.5455 18.1818C16.9973 18.1818 17.3637 17.8155 17.3637 17.3636C17.3637 16.9118 16.9973 16.5455 16.5455 16.5455C16.0936 16.5455 15.7273 16.9118 15.7273 17.3636C15.7273 17.8155 16.0936 18.1818 16.5455 18.1818Z" stroke="#9B9B9B" stroke-width="2" stroke-linecap="round" stroke-linejoin="round"/>
<path d="M1 1H4.27273L6.46545 11.9555C6.54027 12.3321 6.7452 12.6705 7.04436 12.9113C7.34351 13.1522 7.71784 13.2801 8.10182 13.2727H16.0545C16.4385 13.2801 16.8129 13.1522 17.112 12.9113C17.4112 12.6705 17.6161 12.3321 17.6909 11.9555L19 5.09091H5.09091" stroke="#9B9B9B" stroke-width="2" stroke-linecap="round" stroke-linejoin="round"/>
</svg>

